<?xml version="1.0" encoding="utf-8"?>
<!-- Generator: Adobe Illustrator 19.2.1, SVG Export Plug-In . SVG Version: 6.00 Build 0)  -->
<svg version="1.1" id="Calque_1" xmlns="http://www.w3.org/2000/svg" xmlns:xlink="http://www.w3.org/1999/xlink" x="0px" y="0px"
	 width="17.2px" height="10.4px" viewBox="0 0 17.2 10.4" style="enable-background:new 0 0 17.2 10.4;" xml:space="preserve">
<style type="text/css">
	.st0{fill:#0B0B0C;}
</style>
<g>
	<path class="st0" d="M8.6,10.2c-0.4,0-0.8-0.1-1.1-0.4l-7-7C0,2.2,0,1.2,0.5,0.6s1.5-0.6,2.1,0l7,7c0.6,0.6,0.6,1.5,0,2.1
		C9.4,10,9,10.2,8.6,10.2z"/>
</g>
<g>
	<path class="st0" d="M8.6,10.2c-0.4,0-0.8-0.1-1.1-0.4c-0.6-0.6-0.6-1.5,0-2.1l7-7C15.1,0,16,0,16.6,0.6s0.6,1.5,0,2.1l-7,7
		C9.4,10,9,10.2,8.6,10.2z"/>
</g>
</svg>
