<?xml version="1.0" encoding="utf-8"?>
<!-- Generator: Adobe Illustrator 19.2.1, SVG Export Plug-In . SVG Version: 6.00 Build 0)  -->
<svg version="1.1" id="Calque_1" xmlns="http://www.w3.org/2000/svg" xmlns:xlink="http://www.w3.org/1999/xlink" x="0px" y="0px"
	 width="7.8px" height="12.5px" viewBox="0 0 7.8 12.5" style="enable-background:new 0 0 7.8 12.5;" xml:space="preserve">
<style type="text/css">
	.st0{fill:#FFFFFF;}
</style>
<g>
	<path class="st0" d="M1.6,12.4c-0.4,0-0.8-0.1-1.1-0.4C0,11.3,0,10.4,0.5,9.8l4.7-4.7c0.6-0.6,1.5-0.6,2.1,0c0.6,0.6,0.6,1.5,0,2.1
		l-4.7,4.7C2.4,12.2,2,12.4,1.6,12.4z"/>
</g>
<g>
	<path class="st0" d="M6.3,7.7c-0.4,0-0.8-0.1-1.1-0.4L0.5,2.6C0,2,0,1.1,0.5,0.5c0.6-0.6,1.5-0.6,2.1,0l4.7,4.7
		c0.6,0.6,0.6,1.5,0,2.1C7,7.6,6.6,7.7,6.3,7.7z"/>
</g>
</svg>
