<?xml version="1.0" encoding="utf-8"?>
<!-- Generator: Adobe Illustrator 19.2.1, SVG Export Plug-In . SVG Version: 6.00 Build 0)  -->
<svg version="1.1" id="Calque_1" xmlns="http://www.w3.org/2000/svg" xmlns:xlink="http://www.w3.org/1999/xlink" x="0px" y="0px"
	 width="44.2px" height="39.9px" viewBox="0 0 44.2 39.9" style="enable-background:new 0 0 44.2 39.9;" xml:space="preserve">
<style type="text/css">
	.st0{fill:#A6192E;}
</style>
<g>
	<path class="st0" d="M38.3,4c-4.8-4.1-12-3.9-16.6,0.7h-0.1C17,0.2,9.8-0.1,5,4c-5.6,4.7-5.7,13.2-0.5,18.4l15.3,15.3
		c1,1,2.7,1,3.7,0c3.4-3.4,10.6-10.6,15.3-15.3C44,17.2,43.9,8.8,38.3,4z"/>
</g>
<g>
	<path d="M22.1,39.6c-0.9,0-1.9-0.4-2.6-1.1L4.3,23.3C1.5,20.5,0,16.7,0.2,12.9C0.4,9.2,2,5.8,4.9,3.4C10-0.9,17.2-0.8,22.2,3.5
		c4.9-4.3,12.2-4.4,17.3-0.1l0,0c2.8,2.4,4.5,5.8,4.6,9.5c0.2,3.8-1.3,7.6-4.1,10.4L24.7,38.6C24,39.3,23.1,39.6,22.1,39.6z
		 M13.4,2.3c-2.6,0-5.2,0.9-7.3,2.7c-2.4,2-3.8,4.9-3.9,8c-0.1,3.3,1.1,6.5,3.5,8.9L21,37.2c0.6,0.6,1.7,0.6,2.3,0l15.3-15.3
		c2.4-2.4,3.7-5.6,3.5-8.9c-0.1-3.2-1.5-6-3.9-8l0,0c-4.5-3.8-11-3.5-15.2,0.6l-0.7,0.7l-0.8-0.7C19.2,3.4,16.3,2.3,13.4,2.3z"/>
</g>
<g>
	<path d="M7.1,12c-0.1,0-0.2,0-0.4,0c-0.5-0.2-0.8-0.7-0.6-1.3c0.4-1.3,1.2-2.5,2.3-3.4s2.5-1.6,3.9-1.8c0.5-0.1,1.1,0.3,1.1,0.8
		c0.1,0.5-0.3,1.1-0.8,1.1C11.5,7.6,10.5,8,9.7,8.7C8.9,9.5,8.3,10.4,8,11.3C7.9,11.8,7.5,12,7.1,12z"/>
</g>
</svg>
