<?xml version="1.0" encoding="utf-8"?>
<!-- Generator: Adobe Illustrator 19.2.1, SVG Export Plug-In . SVG Version: 6.00 Build 0)  -->
<svg version="1.1" id="Calque_1" xmlns="http://www.w3.org/2000/svg" xmlns:xlink="http://www.w3.org/1999/xlink" x="0px" y="0px"
	 width="75.5px" height="39.8px" viewBox="0 0 75.5 39.8" style="enable-background:new 0 0 75.5 39.8;" xml:space="preserve">
<style type="text/css">
	.st0{fill:#F0EBD7;}
	.st1{fill:#A6192E;}
</style>
<g>
	<circle class="st0" cx="15.3" cy="16.8" r="7.8"/>
</g>
<g>
	<path class="st0" d="M24,26.3c-2.4-1.8-5.4-2.9-8.6-2.9c-7.8,0-14.2,6.3-14.2,14.2h18.7"/>
</g>
<g>
	<circle class="st1" cx="37.2" cy="11.2" r="9.8"/>
</g>
<g>
	<circle class="st0" cx="59.5" cy="16.8" r="7.8"/>
</g>
<g>
	<path class="st0" d="M50.9,26.3c2.4-1.8,5.4-2.9,8.6-2.9c7.8,0,14.2,6.3,14.2,14.2H54.9"/>
</g>
<g>
	<path class="st1" d="M19.5,37.6c0-9.8,7.9-17.7,17.7-17.7s17.7,7.9,17.7,17.7H19.5z"/>
</g>
<g>
	<path d="M37.7,21.8c-6,0-10.8-4.9-10.8-10.8S31.8,0.1,37.7,0.1S48.6,5,48.6,10.9S43.7,21.8,37.7,21.8z M37.7,2.1
		c-4.9,0-8.8,4-8.8,8.8s4,8.8,8.8,8.8c4.9,0,8.8-4,8.8-8.8S42.6,2.1,37.7,2.1z"/>
</g>
<g>
	<path d="M56.5,39.5H19v-1c0-10.3,8.4-18.7,18.7-18.7s18.7,8.4,18.7,18.7L56.5,39.5L56.5,39.5z M21,37.5h33.4
		c-0.5-8.8-7.8-15.7-16.7-15.7S21.6,28.7,21,37.5z"/>
</g>
<g>
	<path d="M60,25.3c-4.9,0-8.8-4-8.8-8.8s4-8.8,8.8-8.8s8.8,4,8.8,8.8S64.9,25.3,60,25.3z M60,9.7c-3.8,0-6.8,3.1-6.8,6.8
		s3.1,6.8,6.8,6.8s6.8-3.1,6.8-6.8S63.8,9.7,60,9.7z"/>
</g>
<g>
	<path d="M75.2,39.5H55.4v-2h17.7c-0.5-6.8-6.2-12.2-13.1-12.2c-2.9,0-5.7,0.9-8,2.7l-1.2-1.6c2.7-2,5.9-3.1,9.2-3.1
		c8.4,0,15.2,6.8,15.2,15.2C75.2,38.5,75.2,39.5,75.2,39.5z"/>
</g>
<g>
	<path d="M15.4,25.3c-4.9,0-8.8-4-8.8-8.8s4-8.8,8.8-8.8s8.8,4,8.8,8.8S20.3,25.3,15.4,25.3z M15.4,9.7c-3.8,0-6.8,3.1-6.8,6.8
		s3.1,6.8,6.8,6.8s6.8-3.1,6.8-6.8S19.2,9.7,15.4,9.7z"/>
</g>
<g>
	<path d="M20,39.5H0.2v-1c0-8.4,6.8-15.2,15.2-15.2c3.4,0,6.6,1.1,9.2,3.1L23.4,28c-2.3-1.8-5.1-2.7-8-2.7
		c-6.9,0-12.6,5.4-13.1,12.2H20V39.5z"/>
</g>
<g>
	<circle cx="37.7" cy="22.4" r="1.8"/>
</g>
<g>
	<path d="M38,23.8l3.8,14.3h-7.6l3.3-14.3C37.6,23.6,37.9,23.6,38,23.8z"/>
</g>
<g>
	<path d="M23.2,16.5c-8.4,0-8.8-7.8-8.8-7.8l2-0.1c0,0.2,0.3,5.9,6.8,5.9V16.5z"/>
</g>
<g>
	<path d="M10,15.8c-0.7,0-1.5-0.1-2.3-0.2l0.3-2c4.8,0.8,8.3-1.6,8.4-1.7l1.2,1.6C17.4,13.7,14.4,15.8,10,15.8z"/>
</g>
<g>
	<path d="M67.8,18.6c-4.5,0-6.7-2-7.7-3.8c-2.2,3.3-7.4,3.8-7.7,3.8l-0.2-2c0.1,0,6.3-0.6,6.8-4.5l0.1-0.8l0.9-0.1
		c0.5,0,1,0.3,1.1,0.9c0.3,1.7,1.6,4.5,6.7,4.5C67.8,16.6,67.8,18.6,67.8,18.6z M61,12.4L61,12.4L61,12.4z"/>
</g>
</svg>
