<?xml version="1.0" encoding="utf-8"?>
<!-- Generator: Adobe Illustrator 19.2.1, SVG Export Plug-In . SVG Version: 6.00 Build 0)  -->
<svg version="1.1" id="Calque_1" xmlns="http://www.w3.org/2000/svg" xmlns:xlink="http://www.w3.org/1999/xlink" x="0px" y="0px"
	 width="22.2px" height="20px" viewBox="0 0 22.2 20" style="enable-background:new 0 0 22.2 20;" xml:space="preserve">
<style type="text/css">
	.st0{fill:#A6192E;}
</style>
<g>
	<path class="st0" d="M18.9,1H3.6C2.2,1,1,2.1,1,3.6v9.3c0,1.4,1.2,2.6,2.6,2.6h0.8v3.2c0,0.6,0.7,0.9,1.2,0.6l5.2-3.7h8.1
		c1.4,0,2.6-1.2,2.6-2.6V3.6C21.5,2.1,20.4,1,18.9,1z"/>
</g>
<g>
	<path d="M5.1,19.9c-0.2,0-0.4,0-0.6-0.1c-0.5-0.2-0.8-0.7-0.8-1.3V16H3.5c-1.8,0-3.3-1.5-3.3-3.3V3.5c0-1.8,1.5-3.3,3.3-3.3h15.3
		c1.8,0,3.3,1.5,3.3,3.3v9.3c0,1.8-1.5,3.3-3.3,3.3h-7.9l-5,3.6C5.7,19.8,5.4,19.9,5.1,19.9z M3.5,1.6c-1,0-1.9,0.8-1.9,1.9v9.3
		c0,1,0.8,1.9,1.9,1.9H5v3.9l5.4-3.9h8.3c1,0,1.9-0.8,1.9-1.9V3.5c0-1-0.8-1.9-1.9-1.9H3.5z"/>
</g>
</svg>
