<?xml version="1.0" encoding="utf-8"?>
<!-- Generator: Adobe Illustrator 19.2.1, SVG Export Plug-In . SVG Version: 6.00 Build 0)  -->
<svg version="1.1" id="Calque_1" xmlns="http://www.w3.org/2000/svg" xmlns:xlink="http://www.w3.org/1999/xlink" x="0px" y="0px"
	 width="51.5px" height="40px" viewBox="0 0 51.5 40" style="enable-background:new 0 0 51.5 40;" xml:space="preserve">
<style type="text/css">
	.st0{fill:#F0EBD7;}
	.st1{fill:#A6192E;}
</style>
<g>
	<path class="st0" d="M15.2,6.9V5.1c0-2.4,2-4.4,4.4-4.4h26c2.4,0,4.4,2,4.4,4.4v15.8c0,2.4-2,4.4-4.4,4.4h-1.4v5.4c0,1-1.2,1.6-2,1
		L35.6,27"/>
</g>
<g>
	<path d="M43.3,33.3c-0.5,0-1-0.2-1.4-0.5l-6.4-4.6l1.2-1.6l6.5,4.6c0.1,0.1,0.2,0.1,0.3,0.1s0.1-0.1,0.1-0.2v-6.4H46
		c1.9,0,3.4-1.5,3.4-3.4V5.6c0-1.9-1.5-3.4-3.4-3.4H20c-1.9,0-3.4,1.5-3.4,3.4v1.7h-2V5.6c0-3,2.4-5.4,5.4-5.4h26
		c3,0,5.4,2.4,5.4,5.4v15.8c0,3-2.4,5.4-5.4,5.4h-0.4v4.4c0,0.9-0.5,1.6-1.3,2C44,33.2,43.6,33.3,43.3,33.3z"/>
</g>
<g>
	<path class="st1" d="M31.2,7.3h-26c-2.4,0-4.4,2-4.4,4.4v15.8c0,2.4,2,4.4,4.4,4.4h1.4v5.4c0,1,1.2,1.6,2,1l8.8-6.3h13.7
		c2.4,0,4.4-2,4.4-4.4V11.7C35.6,9.2,33.6,7.3,31.2,7.3z"/>
</g>
<g>
	<path d="M8.3,39.8c-0.3,0-0.7-0.1-1-0.2c-0.8-0.4-1.3-1.1-1.3-2v-4.4H5.7c-3,0-5.4-2.4-5.4-5.4V12.1c0-3,2.4-5.4,5.4-5.4h26
		c3,0,5.4,2.4,5.4,5.4v15.8c0,3-2.4,5.4-5.4,5.4H18.2l-8.5,6.1C9.3,39.7,8.8,39.8,8.3,39.8z M5.7,8.7c-1.9,0-3.4,1.5-3.4,3.4v15.8
		c0,1.9,1.5,3.4,3.4,3.4h2.4v6.4c0,0.1,0,0.2,0.1,0.2c0.1,0,0.2,0,0.2,0l9.1-6.5h14.1c1.9,0,3.4-1.5,3.4-3.4V12.1
		c0-1.9-1.5-3.4-3.4-3.4H5.7z"/>
</g>
</svg>
