<?xml version="1.0" encoding="utf-8"?>
<!-- Generator: Adobe Illustrator 19.2.1, SVG Export Plug-In . SVG Version: 6.00 Build 0)  -->
<svg version="1.1" id="Calque_1" xmlns="http://www.w3.org/2000/svg" xmlns:xlink="http://www.w3.org/1999/xlink" x="0px" y="0px"
	 width="27.7px" height="27.3px" viewBox="0 0 27.7 27.3" style="enable-background:new 0 0 27.7 27.3;" xml:space="preserve">
<style type="text/css">
	.st0{fill:#A6192E;}
</style>
<g>
	<g>
		<path class="st0" d="M21.9,25.3C13.6,20.6,6.7,13.7,2,5.4c-0.6-1-0.3-2.2,0.6-2.6c1.4-0.7,2.7-1.4,4.1-2.1
			c0.9-0.4,1.9-0.1,2.4,0.8c0.8,1.5,1.8,2.9,2.8,4.3c0.4,0.6,0.5,1.3,0.1,1.9c-0.4,0.8-0.8,1.6-1.2,2.4c-0.2,0.3-0.1,0.7,0.2,1
			c1.6,1.9,3.4,3.6,5.2,5.2c0.3,0.3,0.8,0.3,1.1,0.2c0.8-0.4,1.6-0.8,2.3-1.2c0.6-0.3,1.4-0.3,2,0.1c1.4,1,2.8,1.9,4.3,2.7
			c0.9,0.5,1.2,1.6,0.8,2.5c-0.7,1.3-1.4,2.7-2,4C24.2,25.6,22.9,25.9,21.9,25.3z"/>
	</g>
</g>
<g>
	<g>
		<path d="M22.6,26.9c-0.5,0-1-0.1-1.5-0.4C12.6,21.7,5.7,14.7,0.9,6.3C0.5,5.6,0.4,4.8,0.7,4.1C0.8,3.5,1.2,3,1.8,2.7l4.1-2.1
			C7.1,0,8.5,0.5,9.2,1.7c0.8,1.5,1.7,2.9,2.7,4.3c0.6,0.8,0.7,1.8,0.2,2.7c-0.4,0.8-0.8,1.6-1.2,2.4c0,0.1,0,0.2,0.1,0.3
			c1.6,1.8,3.3,3.6,5.2,5.2c0.1,0.1,0.2,0.1,0.3,0.1c0.8-0.4,1.5-0.8,2.3-1.2c0.9-0.5,1.9-0.4,2.8,0.2c1.3,1,2.7,1.9,4.2,2.7
			c1.2,0.7,1.7,2.2,1.1,3.4l-2,4c-0.3,0.5-0.8,1-1.4,1.1C23.1,26.8,22.8,26.9,22.6,26.9z M7,1.7c-0.2,0-0.3,0-0.5,0.1L2.4,3.9
			C2.2,4.1,2,4.3,2,4.5C1.9,4.8,1.9,5.2,2.2,5.6c4.6,8.2,11.4,15,19.6,19.6l0,0c0.4,0.2,0.8,0.3,1.2,0.2c0.2-0.1,0.4-0.2,0.6-0.4
			l2-4c0.3-0.5,0-1.2-0.5-1.5c-1.5-0.8-2.9-1.8-4.3-2.8c-0.4-0.3-0.9-0.3-1.3-0.1c-0.8,0.4-1.6,0.8-2.3,1.2
			c-0.6,0.3-1.3,0.2-1.9-0.3c-1.9-1.6-3.7-3.4-5.3-5.3c-0.4-0.5-0.5-1.2-0.3-1.8c0.4-0.8,0.8-1.6,1.2-2.4c0.2-0.4,0.2-0.8-0.1-1.2
			c-1-1.4-2-2.9-2.8-4.4C7.8,2,7.4,1.7,7,1.7z"/>
	</g>
</g>
<g>
	<path d="M20.1,11.7c-0.4,0-0.7-0.3-0.7-0.7c0-2.1-1.7-3.8-3.8-3.8c-0.4,0-0.7-0.3-0.7-0.7s0.3-0.7,0.7-0.7c2.9,0,5.2,2.3,5.2,5.2
		C20.8,11.3,20.5,11.7,20.1,11.7z"/>
</g>
<g>
	<path d="M24.1,11.7c-0.4,0-0.7-0.3-0.7-0.7c0-4.3-3.5-7.8-7.8-7.8c-0.4,0-0.7-0.3-0.7-0.7s0.3-0.7,0.7-0.7c5.1,0,9.2,4.1,9.2,9.2
		C24.8,11.3,24.5,11.7,24.1,11.7z"/>
</g>
</svg>
