<?xml version="1.0" encoding="utf-8"?>
<!-- Generator: Adobe Illustrator 19.2.1, SVG Export Plug-In . SVG Version: 6.00 Build 0)  -->
<svg version="1.1" id="Calque_1" xmlns="http://www.w3.org/2000/svg" xmlns:xlink="http://www.w3.org/1999/xlink" x="0px" y="0px"
	 width="26.1px" height="17.5px" viewBox="0 0 26.1 17.5" style="enable-background:new 0 0 26.1 17.5;" xml:space="preserve">
<style type="text/css">
	.st0{fill:#A6192E;}
	.st1{display:none;fill:none;stroke:#FFFFFF;stroke-width:1.4;stroke-miterlimit:10;}
</style>
<g>
	<path class="st0" d="M22.7,16.6H3.5c-1.4,0-2.6-1.1-2.6-2.6V3.4c0-1.4,1.1-2.6,2.6-2.6h19.2c1.4,0,2.6,1.1,2.6,2.6v10.6
		C25.3,15.5,24.1,16.6,22.7,16.6z"/>
	<path d="M22.7,17.3H3.5c-1.8,0-3.3-1.5-3.3-3.3V3.4c0-1.8,1.5-3.3,3.3-3.3h19.2c1.8,0,3.3,1.5,3.3,3.3v10.6
		C26,15.9,24.5,17.3,22.7,17.3z M3.5,1.6c-1,0-1.9,0.8-1.9,1.9v10.6c0,1,0.8,1.9,1.9,1.9h19.2c1,0,1.9-0.8,1.9-1.9V3.4
		c0-1-0.8-1.9-1.9-1.9H3.5z"/>
</g>
<path class="st1" d="M22.7,16.7H3.5c-1.4,0-2.6-1.1-2.6-2.6V3.4c0-1.4,1.1-2.6,2.6-2.6h19.2c1.4,0,2.6,1.1,2.6,2.6v10.6
	C25.3,15.5,24.1,16.7,22.7,16.7z"/>
<g>
	<polygon points="13.1,11 1.1,2.4 1.9,1.2 13.1,9.3 24.3,1.2 25.1,2.4 	"/>
</g>
<g>
	<rect x="3.9" y="14" transform="matrix(0.8145 -0.5802 0.5802 0.8145 -7.1842 6.9263)" width="6.7" height="1.4"/>
</g>
<g>
	<rect x="18.3" y="11.3" transform="matrix(0.5807 -0.8141 0.8141 0.5807 -4.0134 21.6025)" width="1.4" height="6.7"/>
</g>
</svg>
