<?xml version="1.0" encoding="utf-8"?>
<!-- Generator: Adobe Illustrator 19.2.1, SVG Export Plug-In . SVG Version: 6.00 Build 0)  -->
<svg version="1.1" id="Calque_1" xmlns="http://www.w3.org/2000/svg" xmlns:xlink="http://www.w3.org/1999/xlink" x="0px" y="0px"
	 width="48.5px" height="45.7px" viewBox="0 0 48.5 45.7" style="enable-background:new 0 0 48.5 45.7;" xml:space="preserve">
<style type="text/css">
	.st0{fill:#A6192E;}
	.st1{fill:#020202;}
	.st2{fill:#F0EBD7;}
</style>
<g>
	<path class="st0" d="M30.2,9.4c0,1,0.5,1.9,1.2,2.5c1.2,0.9,2.3,2.1,3.1,3.5c1.1,1.8,1.6,3.8,1.6,6c0,3.3-1.4,6.5-3.8,8.8
		c-2.3,2.1-4.9,3.2-8.1,3.2s-6.4-1.3-8.6-3.5c-2.3-2.3-3.5-5.2-3.5-8.5c0-2.2,0.5-4.2,1.6-6c0.8-1.4,1.8-2.5,3.1-3.5
		c0.8-0.6,1.3-1.5,1.3-2.5V2.9c0-0.9,0.7-1.6,1.6-1.6h8.8c0.9,0,1.6,0.7,1.6,1.6v6.5H30.2z"/>
	<path class="st1" d="M24.3,34.3c-3.4,0-6.8-1.4-9.2-3.8c-2.5-2.5-3.8-5.6-3.8-9.2c0-2.4,0.6-4.5,1.7-6.5c0.9-1.5,2-2.8,3.4-3.8
		c0.6-0.4,0.9-1,0.9-1.7V2.9c0-1.4,1.2-2.6,2.6-2.6h8.8c1.4,0,2.6,1.2,2.6,2.6v6.4c0,0.6,0.3,1.3,0.9,1.7c1.3,1,2.5,2.3,3.4,3.8
		c1.2,2,1.8,4.1,1.8,6.5c0,3.6-1.5,7.1-4.1,9.5c-2.4,2.3-5.4,3.5-8.7,3.5C24.3,34.3,24.3,34.3,24.3,34.3z M19.8,2.3
		c-0.3,0-0.6,0.3-0.6,0.6v6.4c0,1.3-0.6,2.5-1.7,3.3c-1.2,0.9-2.1,1.9-2.9,3.2c-1,1.6-1.5,3.5-1.5,5.5c0,3.1,1,5.6,3.2,7.8
		c2.1,2.1,4.9,3.2,7.8,3.2h0.1c2.9,0,5.3-1,7.4-3c2.2-2.1,3.5-5,3.5-8.1c0-2-0.5-3.8-1.5-5.5c-0.8-1.3-1.7-2.3-2.9-3.2
		c-1-0.8-1.6-2-1.6-3.3V2.9c0-0.3-0.3-0.6-0.6-0.6C28.5,2.3,19.8,2.3,19.8,2.3z"/>
</g>
<g>
	<path class="st2" d="M47.2,22.2h-6c-0.6,0-1-0.4-1-1s0.4-1,1-1h6c0.6,0,1,0.4,1,1S47.8,22.2,47.2,22.2z"/>
</g>
<g>
	<path class="st2" d="M40.5,38.6c-0.3,0-0.5-0.1-0.7-0.3l-4.2-4.2c-0.4-0.4-0.4-1,0-1.4s1-0.4,1.4,0l4.2,4.2c0.4,0.4,0.4,1,0,1.4
		C41,38.5,40.7,38.6,40.5,38.6z"/>
</g>
<g>
	<path class="st2" d="M8,38.6c-0.3,0-0.5-0.1-0.7-0.3c-0.4-0.4-0.4-1,0-1.4l4.2-4.2c0.4-0.4,1-0.4,1.4,0s0.4,1,0,1.4l-4.2,4.2
		C8.5,38.6,8.3,38.6,8,38.6z"/>
</g>
<g>
	<path class="st2" d="M7.2,22.2h-6c-0.6,0-1-0.4-1-1s0.4-1,1-1h6c0.6,0,1,0.4,1,1S7.8,22.2,7.2,22.2z"/>
</g>
<g>
	<path class="st2" d="M24.3,45.3c-0.6,0-1-0.4-1-1v-6c0-0.6,0.4-1,1-1s1,0.4,1,1v6C25.3,44.9,24.9,45.3,24.3,45.3z"/>
</g>
</svg>
