<?xml version="1.0" encoding="utf-8"?>
<!-- Generator: Adobe Illustrator 19.2.1, SVG Export Plug-In . SVG Version: 6.00 Build 0)  -->
<svg version="1.1" id="Calque_1" xmlns="http://www.w3.org/2000/svg" xmlns:xlink="http://www.w3.org/1999/xlink" x="0px" y="0px"
	 width="38.2px" height="38.2px" viewBox="0 0 38.2 38.2" style="enable-background:new 0 0 38.2 38.2;" xml:space="preserve">
<style type="text/css">
	.st0{fill:#A6192E;}
	.st1{display:none;}
	.st2{display:inline;fill:none;stroke:#000000;stroke-width:2;stroke-miterlimit:10;}
	.st3{fill:#EDEAD5;}
	.st4{display:none;fill:none;stroke:#000000;stroke-width:2;stroke-linecap:round;stroke-miterlimit:10;}
</style>
<g>
	<g>
		<path class="st0" d="M30,36.6C18.1,29.9,8.2,20.1,1.5,8.2C0.7,6.7,1.1,5,2.3,4.4c2-1,3.9-2,5.9-3c1.2-0.6,2.7-0.1,3.4,1.1
			c1.2,2.1,2.5,4.2,4,6.2c0.6,0.8,0.7,1.9,0.2,2.8c-0.6,1.1-1.2,2.3-1.7,3.4c-0.2,0.5-0.1,1,0.2,1.5c2.3,2.7,4.8,5.2,7.5,7.5
			c0.5,0.4,1.1,0.5,1.6,0.2c1.1-0.5,2.2-1.1,3.3-1.7c0.9-0.5,2-0.4,2.9,0.2c1.9,1.4,4,2.7,6.1,3.9c1.2,0.7,1.8,2.3,1.1,3.5
			c-1,1.9-1.9,3.8-2.9,5.7C33.2,37.1,31.4,37.5,30,36.6z"/>
		<path d="M31.6,38.1c-0.7,0-1.5-0.2-2.1-0.6l0,0C17.4,30.7,7.4,20.7,0.7,8.7C0.1,7.6,0,6.5,0.3,5.4c0.3-0.9,0.8-1.6,1.6-2l5.9-3
			c1.7-0.9,3.8-0.2,4.7,1.5c1.2,2.1,2.5,4.2,3.9,6.1c0.8,1.1,0.9,2.6,0.3,3.8c-0.6,1.1-1.2,2.2-1.7,3.4c0,0.1,0,0.2,0.1,0.4
			c2.3,2.6,4.7,5.1,7.4,7.4c0.2,0.1,0.3,0.2,0.5,0.1c1.1-0.5,2.2-1.1,3.3-1.7c1.3-0.7,2.8-0.6,3.9,0.3c1.9,1.4,3.9,2.7,6,3.8
			c1.7,1,2.4,3.1,1.6,4.8l-2.9,5.7c-0.4,0.8-1.1,1.4-2,1.6C32.4,38,32,38.1,31.6,38.1z M9.3,2.1c-0.2,0-0.4,0-0.6,0.2l-5.9,3
			C2.4,5.5,2.3,5.8,2.2,6C2,6.5,2.1,7.1,2.4,7.7c6.6,11.8,16.3,21.5,28,28.1l0,0c0.6,0.3,1.2,0.4,1.7,0.2c0.3-0.1,0.6-0.3,0.8-0.6
			l2.9-5.7c0.4-0.8,0-1.7-0.7-2.2c-2.1-1.2-4.2-2.5-6.2-4c-0.5-0.4-1.2-0.4-1.8-0.1c-1.1,0.6-2.2,1.2-3.4,1.7
			c-0.9,0.4-1.9,0.3-2.7-0.4c-2.7-2.3-5.3-4.9-7.6-7.6c-0.6-0.7-0.8-1.7-0.4-2.6c0.6-1.2,1.2-2.3,1.8-3.5c0.3-0.5,0.2-1.2-0.1-1.7
			c-1.5-2-2.8-4.1-4-6.3C10.4,2.5,9.9,2.1,9.3,2.1z"/>
	</g>
</g>
<g class="st1">
	<path class="st2" d="M26.4,33.1C14.5,26.4,4.7,16.6-2,4.6c-0.8-1.4-0.4-3.2,0.8-3.8c2-1,3.9-2,5.9-3C5.9-2.7,7.4-2.2,8.1-1
		c1.2,2.1,2.5,4.2,4,6.2C12.7,6,12.7,7.1,12.3,8c-0.6,1.1-1.2,2.3-1.7,3.4c-0.2,0.5-0.1,1,0.2,1.5c2.3,2.7,4.8,5.2,7.5,7.5
		c0.5,0.4,1.1,0.5,1.6,0.2c1.1-0.5,2.2-1.1,3.3-1.7c0.9-0.5,2-0.4,2.9,0.2c1.9,1.4,4,2.7,6.1,3.9c1.2,0.7,1.8,2.3,1.1,3.5
		c-1,1.9-1.9,3.8-2.9,5.7C29.7,33.5,27.9,33.9,26.4,33.1z"/>
</g>
<g>
	<path class="st3" d="M28.1,16.3c-0.6,0-1-0.4-1-1c0-3-2.4-5.4-5.4-5.4c-0.6,0-1-0.4-1-1s0.4-1,1-1c4.1,0,7.4,3.3,7.4,7.4
		C29.1,15.9,28.6,16.3,28.1,16.3z"/>
</g>
<g>
	<path class="st3" d="M33.9,16.3c-0.6,0-1-0.4-1-1c0-6.2-5-11.2-11.2-11.2c-0.6,0-1-0.4-1-1s0.4-1,1-1c7.3,0,13.2,5.9,13.2,13.2
		C34.9,15.9,34.4,16.3,33.9,16.3z"/>
</g>
<path class="st4" d="M18.1,5.4c3.5,0,6.4,2.9,6.4,6.4"/>
<path class="st4" d="M18.1-0.4c6.7,0,12.2,5.5,12.2,12.2"/>
</svg>
