<?xml version="1.0" encoding="utf-8"?>
<!-- Generator: Adobe Illustrator 19.2.1, SVG Export Plug-In . SVG Version: 6.00 Build 0)  -->
<svg version="1.1" id="Calque_1" xmlns="http://www.w3.org/2000/svg" xmlns:xlink="http://www.w3.org/1999/xlink" x="0px" y="0px"
	 width="41.7px" height="45.8px" viewBox="0 0 41.7 45.8" style="enable-background:new 0 0 41.7 45.8;" xml:space="preserve">
<style type="text/css">
	.st0{fill:#A6192E;}
</style>
<g>
	<path class="st0" d="M27.3,15.9l-0.2,0.2c0.6-0.4,0.1-1.5,0.1-2.2c0-1.1-0.9-2-2-2c1.3-1.6,4.3-5.7,4.7-8.4C30,3,29.7,2.5,29.2,2.3
		c-8.7-4-17.2,0.4-20,1.7C8.9,4.1,8.8,4.6,9,5c1.8,2,3.8,7,3.8,7c-1.1,0-2,0.9-2,2c0,1,0.8,1.9,1.8,2l-0.7,0
		C5.3,18.5,0.7,24.2,0.7,30.8c0,9,8.5,13.4,18.9,13.4c10.5,0,20.3-2.4,20.3-11.3C39.9,26,34.6,18.4,27.3,15.9z"/>
</g>
<g>
	<path d="M20.2,45.7C8,45.7,0.2,40.1,0.2,31.3c0-6.8,4.7-13,11.9-15.8l0.7,1.9C6.4,19.9,2.2,25.3,2.2,31.3c0,6,4.7,12.4,17.9,12.4
		c12.8,0,19.3-3.5,19.3-10.3c0-6.5-5.9-13.9-12.9-16.3l0.6-1.9c7.7,2.6,14.3,11,14.3,18.2C41.5,43.6,29.9,45.7,20.2,45.7z"/>
</g>
<g>
	<path d="M19.6,18.2c-2.3,0-4.6-0.1-7-0.4c-0.8-0.1-1.6-0.5-2-1.2c-0.5-0.6-0.6-1.4-0.5-2.1l0-0.3c0.3-1.5,1.7-2.6,3.2-2.4
		c4.1,0.5,8.3,0.5,12.5,0c1.6-0.2,3,0.9,3.2,2.4l0,0.3c0.1,0.7-0.1,1.5-0.5,2.1c-0.5,0.6-1.2,1.1-2,1.2C24.2,18,21.9,18.2,19.6,18.2
		z M13,13.7c-0.4,0-0.8,0.3-0.9,0.7l0,0.3c0,0.2,0,0.4,0.1,0.6c0.2,0.2,0.4,0.3,0.7,0.4c4.5,0.5,9,0.5,13.4,0h0
		c0.3,0,0.5-0.2,0.7-0.4c0.1-0.2,0.2-0.4,0.1-0.6l0-0.3c-0.1-0.5-0.5-0.8-1-0.7c-4.3,0.5-8.6,0.5-12.9,0C13.1,13.8,13,13.7,13,13.7z
		"/>
</g>
<g>
	<path d="M26.2,13.6l-1.5-1.3c1.1-1.3,4.4-5.7,4.8-8.4c0-0.1,0-0.2-0.1-0.2c-7.7-3.6-15.3-0.1-18.5,1.4l-0.2,0.1
		c1.8,2.3,3.6,6.8,3.7,7l-1.9,0.7c0,0-2-4.9-3.6-6.8C8.5,5.7,8.3,5.2,8.5,4.7c0.1-0.5,0.5-0.9,0.9-1.1L10,3.3
		c3.5-1.6,11.6-5.3,20.2-1.4c0.9,0.4,1.4,1.4,1.2,2.3C30.9,8,26.3,13.5,26.2,13.6z M10.2,5.4L10.2,5.4C10.2,5.4,10.2,5.4,10.2,5.4z"
		/>
</g>
<g>
	<path d="M18.1,13.6c-0.6,0-1-0.4-1-1V9.2c0-0.6,0.4-1,1-1s1,0.4,1,1v3.4C19.1,13.1,18.6,13.6,18.1,13.6z"/>
</g>
<g>
	<path d="M21.8,13.8c-0.2,0-0.3,0-0.5-0.1c-0.5-0.3-0.7-0.9-0.4-1.3l2.5-4.9c0.3-0.5,0.9-0.7,1.3-0.4c0.5,0.3,0.7,0.9,0.4,1.3
		l-2.5,4.9C22.5,13.6,22.2,13.8,21.8,13.8z"/>
</g>
</svg>
