<?xml version="1.0" encoding="utf-8"?>
<!-- Generator: Adobe Illustrator 19.2.1, SVG Export Plug-In . SVG Version: 6.00 Build 0)  -->
<svg version="1.1" id="Calque_1" xmlns="http://www.w3.org/2000/svg" xmlns:xlink="http://www.w3.org/1999/xlink" x="0px" y="0px"
	 width="15.6px" height="19.2px" viewBox="0 0 15.6 19.2" style="enable-background:new 0 0 15.6 19.2;" xml:space="preserve">
<style type="text/css">
	.st0{fill:none;stroke:#BC5757;stroke-width:1.2;stroke-miterlimit:10;}
	.st1{fill:#FFFFFF;}
</style>
<g>
	<path class="st0" d="M2.9,5.3"/>
</g>
<g>
	<path class="st1" d="M7.8,8.5c-0.4,0-0.9-0.1-1.2-0.4C6.3,7.9,6.2,7.5,6.4,7.3C6.6,7,7,6.9,7.3,7.1c0.3,0.2,0.7,0.3,1,0
		C8.6,6.9,8.9,7,9.1,7.3S9.3,7.9,9,8.1C8.6,8.4,8.2,8.5,7.8,8.5z"/>
</g>
<g>
	<path class="st1" d="M15.4,19H0.1v-0.6c0-5.8,2.6-8.9,7.7-8.9c5,0,7.7,3.1,7.7,8.9V19z M1.3,17.8h12.9c-0.2-4.7-2.3-7.1-6.4-7.1
		S1.5,13.1,1.3,17.8z"/>
</g>
<g>
	<path class="st1" d="M7.8,10.7c-2.9,0-5.3-2.4-5.3-5.3c0-2.9,2.4-5.3,5.3-5.3c2.9,0,5.3,2.4,5.3,5.3C13,8.3,10.7,10.7,7.8,10.7z
		 M7.8,1.4c-2.2,0-4.1,1.8-4.1,4.1c0,2.2,1.8,4.1,4.1,4.1s4.1-1.8,4.1-4.1C11.8,3.2,10,1.4,7.8,1.4z"/>
</g>
</svg>
