<?xml version="1.0" encoding="utf-8"?>
<!-- Generator: Adobe Illustrator 19.2.1, SVG Export Plug-In . SVG Version: 6.00 Build 0)  -->
<svg version="1.1" id="Calque_1" xmlns="http://www.w3.org/2000/svg" xmlns:xlink="http://www.w3.org/1999/xlink" x="0px" y="0px"
	 width="41.9px" height="38.6px" viewBox="0 0 41.9 38.6" style="enable-background:new 0 0 41.9 38.6;" xml:space="preserve">
<style type="text/css">
	.st0{fill:#F0EBD7;}
	.st1{fill:#A6192E;}
	.st2{fill:none;}
	.st3{fill:#EDEAD5;}
</style>
<g>
	<polygon class="st0" points="1.8,12 12.1,12 12.1,1.6 	"/>
</g>
<g>
	<polyline class="st1" points="27,15.4 27,1.2 12.3,1.2 12.3,12.3 1.2,12.3 1.2,37.3 27,37.3 27,26.3 	"/>
	<polygon points="28,38.3 0.2,38.3 0.2,11.3 11.3,11.3 11.3,0.2 28,0.2 28,15.4 26,15.4 26,2.2 13.3,2.2 13.3,13.3 2.2,13.3 
		2.2,36.3 26,36.3 26,26.3 28,26.3 	"/>
</g>
<g>
	<polygon class="st0" points="23.1,31.6 18.4,32.9 18.1,28.1 29.9,11.3 35,14.9 	"/>
	<path d="M17.5,34.2L17,27.8L29.6,9.9l6.7,4.7L23.7,32.5L17.5,34.2z M19.1,28.3l0.3,3.3l3.2-0.9l11-15.7l-3.4-2.4L19.1,28.3z"/>
</g>
<g>
	<rect x="33.8" y="4.5" transform="matrix(0.5767 -0.817 0.817 0.5767 9.1705 32.8497)" class="st0" width="5" height="6.2"/>
	<path d="M37.7,12.8L31,8l4-5.7L41.7,7L37.7,12.8z M33.8,7.6l3.4,2.4l1.7-2.4l-3.4-2.4L33.8,7.6z"/>
</g>
<g>
	<line class="st2" x1="12" y1="0.9" x2="1" y2="12"/>
	<rect x="-1.3" y="5.4" transform="matrix(0.7064 -0.7078 0.7078 0.7064 -2.6355 6.5366)" width="15.7" height="2"/>
</g>
<g>
	<rect x="8.2" y="17.4" class="st3" width="11.6" height="2"/>
</g>
<g>
	<rect x="8.2" y="22.8" class="st3" width="8.9" height="2"/>
</g>
<g>
	<rect x="8.2" y="28.3" class="st3" width="6.8" height="2"/>
</g>
</svg>
