<?xml version="1.0" encoding="utf-8"?>
<!-- Generator: Adobe Illustrator 19.2.1, SVG Export Plug-In . SVG Version: 6.00 Build 0)  -->
<svg version="1.1" id="Calque_1" xmlns="http://www.w3.org/2000/svg" xmlns:xlink="http://www.w3.org/1999/xlink" x="0px" y="0px"
	 width="44.9px" height="43.8px" viewBox="0 0 44.9 43.8" style="enable-background:new 0 0 44.9 43.8;" xml:space="preserve">
<style type="text/css">
	.st0{fill:#A6192E;}
	.st1{fill:#F0EBD7;}
	.st2{fill:none;stroke:#000000;stroke-width:3;stroke-miterlimit:10;}
</style>
<g>
	<path class="st0" d="M26.2,17.9c0,0-5.4,6.6-16,7.2c0,1.1,1,8.1,3.8,12.3c-1.3,2.6-0.2,3.3-5.8,5.1c-3.9,0.8-5.6,0.7-6.9,0.6
		S0.5,41.5,1.1,41s2.5-2.1,2.4-5.6S3.4,25.1,3.4,25.1s0-9,8-14.8L9.5,6.6c0,0-1-1.5,0.8-2.7S15.2,0.8,22,0.8s10,2,12.4,3.5
		c1.2,0.8,1.3,1.9,1,2.6c-0.3,0.6-2,3.8-2,3.8s7.8,5,7.8,15.6v9.6c0,0,0.2,4.2,2.5,6c0,0,1.4,0.9-0.8,1.2c0,0-7.3,1-11.4-3.9
		l-0.6-1.7c0,0,3.9-5,4.1-12.1C32.9,24.5,28.4,22.3,26.2,17.9z"/>
</g>
<g>
	<path class="st1" d="M25.8,17.8c0,0,3.2,5.8,8.4,7.6c0,2.1-1.2,15-11.8,16.1c0,0-12.1-0.5-13.2-16.3C11.8,24.6,21.2,23.7,25.8,17.8
		z"/>
</g>
<g>
	<path class="st2" d="M5.6,25.7"/>
</g>
<g>
	<path d="M22.5,36.8c-1.3,0-2.5-0.4-3.6-1.2c-0.4-0.3-0.5-1-0.2-1.4s1-0.5,1.4-0.2c1.5,1.1,3.2,1.1,4.8,0c0.5-0.3,1.1-0.2,1.4,0.2
		c0.3,0.4,0.2,1.1-0.2,1.4C24.9,36.4,23.7,36.8,22.5,36.8z"/>
</g>
<g>
	<path d="M8,25.8c-0.6,0-1-0.4-1-1s0.4-1,1-1c13.4,0,17-7.1,17.1-7.4c0.2-0.5,0.8-0.7,1.3-0.5c0.5,0.2,0.7,0.8,0.5,1.3
		C26.8,17.6,22.8,25.8,8,25.8z"/>
</g>
<g>
	<path d="M37.4,26.3c-9.3,0-12.9-10.5-13-10.9c-0.2-0.5,0.1-1.1,0.6-1.3c0.5-0.2,1.1,0.1,1.3,0.6c0,0.1,3.3,9.5,11.1,9.5
		c0.6,0,1,0.4,1,1S38,26.3,37.4,26.3z"/>
</g>
<g>
	<path d="M22.4,43C15,43,9,35.3,9,25.7c0-0.3,0-0.7,0-1l2,0.1c0,0.3,0,0.6,0,0.9C11,34.2,16.1,41,22.4,41c6.3,0,11.4-6.9,11.4-15.3
		c0-0.2,0-0.4,0-0.6l2-0.1c0,0.2,0,0.4,0,0.6C35.8,35.3,29.8,43,22.4,43z"/>
</g>
<g>
	<path d="M31.4,13.9c-0.2,0-0.3,0-0.5-0.1c-0.5-0.3-0.7-0.9-0.4-1.3L34,5.6c0-0.1,0-0.1,0-0.1c-1.1-0.8-4.5-3.3-11.6-3.3
		c-0.6,0-1-0.4-1-1s0.4-1,1-1c7.7,0,11.5,2.8,12.7,3.7c0.8,0.6,1.1,1.7,0.6,2.7l-3.5,6.9C32.1,13.7,31.7,13.9,31.4,13.9z"/>
</g>
<g>
	<path d="M13.5,13.9c-0.4,0-0.7-0.2-0.9-0.5L9.1,6.5C8.6,5.6,8.8,4.4,9.7,3.8c1.2-0.9,5-3.7,12.7-3.7c0.6,0,1,0.4,1,1s-0.4,1-1,1
		c-7,0-10.4,2.5-11.6,3.3c0,0-0.1,0.1,0,0.1l3.5,6.9c0.3,0.5,0.1,1.1-0.4,1.3C13.8,13.9,13.6,13.9,13.5,13.9z"/>
</g>
<g>
	<path d="M2.8,43.6c-0.5,0-1,0-1.5-0.1c-0.5,0-1-0.4-1.1-0.9c-0.2-0.5,0-1,0.3-1.3c2.6-2.4,2.4-6,2.4-6l0-9.6
		c0-6.5,3.2-12.5,8.6-16.2c0.5-0.3,1.1-0.2,1.4,0.3c0.3,0.5,0.2,1.1-0.3,1.4C7.9,14.5,5,19.9,5,25.7v9.6c0,0.1,0.2,3.5-2,6.3
		c3.3,0,6.6-1,8.3-2.6c0.7-0.7,1.1-1.4,1.1-2.1c0-0.6,0.4-1,1-1h0c0.6,0,1,0.4,1,1c0,1.3-0.6,2.5-1.8,3.6
		C10.6,42.4,6.7,43.6,2.8,43.6z M1.9,42.9C1.9,42.9,1.9,42.9,1.9,42.9C1.9,42.9,1.9,42.9,1.9,42.9z"/>
</g>
<g>
	<path d="M42,43.6c-3.8,0-7.7-1.2-9.8-3.1c-1.1-1.1-1.8-2.3-1.8-3.6c0-0.6,0.4-1,1-1h0c0.6,0,1,0.4,1,1c0,0.7,0.4,1.4,1.1,2.1
		c1.7,1.6,5,2.6,8.3,2.6c-2.1-2.9-2-6.2-2-6.4l0-9.5c0-5.8-2.9-11.3-7.7-14.5c-0.5-0.3-0.6-0.9-0.3-1.4c0.3-0.5,0.9-0.6,1.4-0.3
		c5.4,3.6,8.6,9.7,8.6,16.2v9.6c0,0.1-0.1,3.7,2.4,6.1c0.4,0.3,0.5,0.9,0.3,1.3c-0.2,0.5-0.6,0.8-1.1,0.9C43,43.6,42.5,43.6,42,43.6
		z M42.9,42.9C42.9,42.9,42.9,42.9,42.9,42.9C42.9,42.9,42.9,42.9,42.9,42.9z"/>
</g>
<g>
	<path class="st1" d="M22.8,12.8c-0.6,0-1-0.4-1-1V7c0-0.6,0.4-1,1-1s1,0.4,1,1v4.7C23.8,12.3,23.3,12.8,22.8,12.8z"/>
</g>
<g>
	<path class="st1" d="M25.1,10.4h-4.7c-0.6,0-1-0.4-1-1s0.4-1,1-1h4.7c0.6,0,1,0.4,1,1S25.7,10.4,25.1,10.4z"/>
</g>
</svg>
