<?xml version="1.0" encoding="utf-8"?>
<!-- Generator: Adobe Illustrator 19.2.1, SVG Export Plug-In . SVG Version: 6.00 Build 0)  -->
<svg version="1.1" id="Calque_1" xmlns="http://www.w3.org/2000/svg" xmlns:xlink="http://www.w3.org/1999/xlink" x="0px" y="0px"
	 width="67.3px" height="54.5px" viewBox="0 0 67.3 54.5" style="enable-background:new 0 0 67.3 54.5;" xml:space="preserve">
<style type="text/css">
	.st0{fill:#FFFFFF;}
</style>
<g>
	<path class="st0" d="M60.1,13.6c0,0.6,0,1.2,0,1.7c0,4.7-0.9,9.3-2.6,13.8s-4.2,8.7-7.3,12.4c-3.2,3.8-7.3,6.8-12.3,9.1
		c-5.1,2.3-10.6,3.5-16.6,3.5c-7.6,0-14.6-2-20.9-6.1c1,0.1,2.1,0.2,3.3,0.2c6.4,0,12-1.9,17-5.8c-3-0.1-5.7-1-8-2.8
		c-2.3-1.8-3.9-4-4.8-6.7c0.8,0.2,1.7,0.3,2.5,0.3c1.2,0,2.4-0.2,3.6-0.6c-3.1-0.6-5.7-2.2-7.8-4.7c-2.1-2.5-3.1-5.4-3.1-8.6v-0.2
		c2,1,4.1,1.6,6.2,1.7c-4.1-2.8-6.1-6.6-6.1-11.4c0-2.5,0.6-4.8,1.9-6.9c3.4,4.2,7.6,7.5,12.4,10s10.1,3.9,15.7,4.2
		c-0.2-1-0.3-2.1-0.3-3.1c0-3.8,1.3-7,4-9.6s5.9-4,9.6-4c4,0,7.3,1.4,10,4.2c3.1-0.6,6-1.7,8.8-3.3c-1,3.2-3.1,5.7-6.1,7.5
		c2.8-0.3,5.5-1,8-2C65.1,9.3,62.8,11.6,60.1,13.6z"/>
</g>
</svg>
