<?xml version="1.0" encoding="utf-8"?>
<!-- Generator: Adobe Illustrator 19.2.1, SVG Export Plug-In . SVG Version: 6.00 Build 0)  -->
<svg version="1.1" id="Calque_1" xmlns="http://www.w3.org/2000/svg" xmlns:xlink="http://www.w3.org/1999/xlink" x="0px" y="0px"
	 width="15.2px" height="15.2px" viewBox="0 0 15.2 15.2" style="enable-background:new 0 0 15.2 15.2;" xml:space="preserve">
<style type="text/css">
	.st0{fill:#FFFFFF;}
</style>
<g>
	<path class="st0" d="M6.7,13.2c-3.6,0-6.5-2.9-6.5-6.5s2.9-6.5,6.5-6.5s6.5,2.9,6.5,6.5S10.3,13.2,6.7,13.2z M6.7,2
		C4.1,2,2,4.1,2,6.6s2.1,4.7,4.7,4.7s4.7-2.1,4.7-4.7S9.2,2,6.7,2z"/>
</g>
<g>
	<path class="st0" d="M14.1,15c-0.2,0-0.5-0.1-0.7-0.3L10,11.3c-0.4-0.4-0.4-1,0-1.3c0.4-0.4,1-0.4,1.3,0l3.5,3.5
		c0.4,0.4,0.4,1,0,1.3C14.6,14.9,14.3,15,14.1,15z"/>
</g>
</svg>
