<?xml version="1.0" encoding="utf-8"?>
<!-- Generator: Adobe Illustrator 19.2.1, SVG Export Plug-In . SVG Version: 6.00 Build 0)  -->
<svg version="1.1" id="Calque_1" xmlns="http://www.w3.org/2000/svg" xmlns:xlink="http://www.w3.org/1999/xlink" x="0px" y="0px"
	 width="223.8px" height="43.3px" viewBox="0 0 223.8 43.3" style="enable-background:new 0 0 223.8 43.3;" xml:space="preserve">
<style type="text/css">
	.st0{fill:#A6192E;}
</style>
<g>
	<path class="st0" d="M212.8,43.2c-14.7,0-22.4-8.3-27.9-14.4c-4.8-5.3-7.2-7.6-12.5-7.6s-7.6,2.3-12.5,7.6
		c-5.6,6.1-13.2,14.4-27.9,14.4s-22.4-8.3-27.9-14.4c-4.8-5.3-7.2-7.6-12.5-7.6s-7.6,2.3-12.5,7.6c-5.6,6.1-13.2,14.4-27.9,14.4
		s-22.4-8.3-27.9-14.4c-4.8-5.3-7.2-7.6-12.5-7.6C5,21.2,0.3,16.5,0.3,10.7S5,0.2,10.8,0.2c14.7,0,22.4,8.3,27.9,14.4
		c4.8,5.3,7.2,7.6,12.5,7.6s7.6-2.3,12.5-7.6C69.3,8.5,76.9,0.2,91.6,0.2s22.4,8.3,27.9,14.4c4.8,5.3,7.2,7.6,12.5,7.6
		s7.6-2.3,12.5-7.6c5.6-6.1,13.2-14.4,27.9-14.4s22.4,8.3,27.9,14.4c4.8,5.3,7.2,7.6,12.5,7.6c5.8,0,10.5,4.7,10.5,10.5
		S218.6,43.2,212.8,43.2z"/>
</g>
</svg>
