<?xml version="1.0" encoding="utf-8"?>
<!-- Generator: Adobe Illustrator 19.2.1, SVG Export Plug-In . SVG Version: 6.00 Build 0)  -->
<svg version="1.1" id="Calque_1" xmlns="http://www.w3.org/2000/svg" xmlns:xlink="http://www.w3.org/1999/xlink" x="0px" y="0px"
	 width="73px" height="14.5px" viewBox="0 0 73 14.5" style="enable-background:new 0 0 73 14.5;" xml:space="preserve">
<style type="text/css">
	.st0{fill:#F0EBD7;}
</style>
<g>
	<path class="st0" d="M69.5,14.3c-4.8,0-7.3-2.7-9.1-4.7c-1.6-1.7-2.3-2.5-4.1-2.5c-1.7,0-2.5,0.8-4.1,2.5c-1.8,2-4.3,4.7-9.1,4.7
		s-7.3-2.7-9.1-4.7c-1.6-1.7-2.3-2.5-4.1-2.5c-1.7,0-2.5,0.8-4.1,2.5c-1.8,2-4.3,4.7-9.1,4.7s-7.3-2.7-9.1-4.7
		C6.2,7.9,5.4,7.2,3.7,7.2c-1.9,0-3.4-1.5-3.4-3.4s1.5-3.4,3.4-3.4C8.5,0.3,11,3,12.8,5c1.6,1.7,2.3,2.5,4.1,2.5
		c1.7,0,2.5-0.8,4.1-2.5c1.8-2,4.3-4.7,9.1-4.7s7.2,2.7,9,4.7c1.6,1.7,2.3,2.5,4.1,2.5c1.7,0,2.5-0.8,4.1-2.5c1.8-2,4.3-4.7,9.1-4.7
		S63.7,3,65.5,5c1.6,1.7,2.3,2.5,4.1,2.5c1.9,0,3.4,1.5,3.4,3.4S71.4,14.3,69.5,14.3z"/>
</g>
</svg>
